<svg xmlns="http://www.w3.org/2000/svg" viewBox="0 0 314.76 88.89"><defs><style>.cls-1{fill:#12cbc4;}.cls-2,.cls-3{fill:#fff;stroke:#fff;stroke-miterlimit:10;}.cls-2{stroke-width:2.94px;}.cls-3{stroke-width:2.98px;}</style></defs><g id="Layer_2" data-name="Layer 2"><g id="Layer_1-2" data-name="Layer 1"><rect class="cls-1" width="88.89" height="88.89" rx="2"/><path class="cls-2" d="M33.37,50.74a14.15,14.15,0,0,1-.69-2.43,6,6,0,0,1,0-1.89,7.75,7.75,0,0,1,.54-1.86c.28-.64.63-1.43,1.07-2.37.31-.74.64-1.47,1-2.2a16.65,16.65,0,0,0,.83-2.19,9.64,9.64,0,0,0,.38-2.24,6,6,0,0,0-.39-2.37,6.1,6.1,0,0,0-2.92-3.52,5.52,5.52,0,0,0-4.59-.1,6.21,6.21,0,0,0-3.68,3.09,7.47,7.47,0,0,0-.56,4.81l-4.82,1.17a11.88,11.88,0,0,1-.05-4.24,9.69,9.69,0,0,1,1.39-3.63,11.59,11.59,0,0,1,2.67-2.9,14,14,0,0,1,3.76-2A13.57,13.57,0,0,1,31.43,25a9.72,9.72,0,0,1,3.83.59,8.53,8.53,0,0,1,3.19,2.1,10.29,10.29,0,0,1,2.21,3.66,9.55,9.55,0,0,1,.62,3.24,11.53,11.53,0,0,1-.37,3,16.48,16.48,0,0,1-1.07,2.9L38.4,43.43a16.91,16.91,0,0,0-.82,1.82,4.57,4.57,0,0,0-.32,1.45,5.19,5.19,0,0,0,.16,1.49c.13.52.33,1.13.59,1.86l.86,2.37L34.55,54Zm4.92,6.79a3.17,3.17,0,0,1,2.51.1,3.21,3.21,0,0,1,1.7,1.86A3.09,3.09,0,0,1,42.34,62a3.18,3.18,0,0,1-4.27,1.56,3.07,3.07,0,0,1-1.75-1.85,3.26,3.26,0,0,1,2-4.21Z"/><path class="cls-3" d="M56.09,57.18a3.34,3.34,0,0,1,2,4.28,3.13,3.13,0,0,1-1.78,1.87A3.22,3.22,0,0,1,52,61.75a3.12,3.12,0,0,1-.16-2.57,3.23,3.23,0,0,1,1.73-1.89A3.19,3.19,0,0,1,56.09,57.18Zm3.8-3.59L55.49,52,65.2,25.31l4.4,1.6Z"/><path d="M98,24.32h5.67l9.82,35.87h.13l10.61-35.87H130l10.56,35.87h.12l10-35.87H156L143.35,67.51H137.8l-10.67-36.6H127l-10.73,36.6h-5.61Z"/><path d="M155.8,53.24a15.39,15.39,0,0,1,1.16-6.1,14.41,14.41,0,0,1,3.17-4.73A14.08,14.08,0,0,1,165,39.33a17.46,17.46,0,0,1,12.2,0A14.18,14.18,0,0,1,182,42.41a14.56,14.56,0,0,1,3.17,4.73,16.62,16.62,0,0,1,0,12.2A14.52,14.52,0,0,1,182,64.06a14,14,0,0,1-4.82,3.08,17.46,17.46,0,0,1-12.2,0,13.93,13.93,0,0,1-4.82-3.08A14.36,14.36,0,0,1,157,59.34,15.43,15.43,0,0,1,155.8,53.24Zm5.12,0a12.1,12.1,0,0,0,.7,4.18A9.71,9.71,0,0,0,166.87,63a11.06,11.06,0,0,0,8.36,0,9.65,9.65,0,0,0,5.24-5.61,12.83,12.83,0,0,0,0-8.36,9.58,9.58,0,0,0-5.24-5.61,10.94,10.94,0,0,0-8.36,0,9.63,9.63,0,0,0-5.25,5.61A12,12,0,0,0,160.92,53.24Z"/><path d="M193.68,45.73q0-1.95-.12-3.66c-.09-1.13-.13-2.17-.13-3.11H198c0,.78,0,1.55.06,2.32s.06,1.57.06,2.38h.12a8.34,8.34,0,0,1,1.37-2,10.1,10.1,0,0,1,2.11-1.74,11,11,0,0,1,2.74-1.22,11.3,11.3,0,0,1,3.3-.46,12.55,12.55,0,0,1,4.85.86,9.13,9.13,0,0,1,3.38,2.37,9.67,9.67,0,0,1,2,3.69,16.9,16.9,0,0,1,.64,4.73V67.51h-4.76V50.37a9.1,9.1,0,0,0-1.59-5.67,5.83,5.83,0,0,0-4.94-2.08,9.3,9.3,0,0,0-4,.8,7.17,7.17,0,0,0-2.74,2.25A10.31,10.31,0,0,0,199,49.15a18.13,18.13,0,0,0-.51,4.45V67.51h-4.76Z"/><path d="M251.32,62.45h-.12A10.86,10.86,0,0,1,247,66.57a13.29,13.29,0,0,1-6.74,1.67,13.92,13.92,0,0,1-5.61-1.13A13.63,13.63,0,0,1,230.06,64a14.83,14.83,0,0,1-3-4.75,16.95,16.95,0,0,1,0-12,14.61,14.61,0,0,1,3.05-4.76,13.74,13.74,0,0,1,4.73-3.14A16.2,16.2,0,0,1,241,38.23a12.76,12.76,0,0,1,5.71,1.28,14.24,14.24,0,0,1,4.54,3.6h.12V21.39h4.76V67.51h-4.76Zm0-9.21a12,12,0,0,0-.7-4.18,9.58,9.58,0,0,0-5.24-5.61,10.94,10.94,0,0,0-8.36,0,9.63,9.63,0,0,0-5.25,5.61,12.83,12.83,0,0,0,0,8.36A9.71,9.71,0,0,0,237,63a11.06,11.06,0,0,0,8.36,0,9.65,9.65,0,0,0,5.24-5.61A12.1,12.1,0,0,0,251.32,53.24Z"/><path d="M290.36,62.33a14.52,14.52,0,0,1-5.61,4.6,17.68,17.68,0,0,1-7.08,1.31,14.59,14.59,0,0,1-6-1.19,13.6,13.6,0,0,1-4.55-3.2,14.19,14.19,0,0,1-2.87-4.76,16.88,16.88,0,0,1-1-5.85,16.18,16.18,0,0,1,1.1-6.07,14,14,0,0,1,3-4.76A13.8,13.8,0,0,1,272,39.33a15.36,15.36,0,0,1,5.86-1.1,14.61,14.61,0,0,1,5.49,1,11.84,11.84,0,0,1,4.3,2.93,13.09,13.09,0,0,1,2.77,4.69,19,19,0,0,1,1,6.32V54.7H268.34a10.4,10.4,0,0,0,2.87,6.44,9.27,9.27,0,0,0,2.86,2,8.74,8.74,0,0,0,3.6.73,11.27,11.27,0,0,0,5.25-1.1,12,12,0,0,0,3.84-3.23Zm-4.08-11.65a8.26,8.26,0,0,0-2.38-5.86,8.58,8.58,0,0,0-6.23-2.2,8.8,8.8,0,0,0-9.33,8.06Z"/><path d="M298.78,45.73q0-1.95-.12-3.66c-.08-1.13-.12-2.17-.12-3.11h4.51c0,.78,0,1.55.06,2.32s.06,1.57.06,2.38h.12a8.4,8.4,0,0,1,1.38-2,10,10,0,0,1,2.1-1.74,10.93,10.93,0,0,1,2.75-1.22,11.18,11.18,0,0,1,3.29-.46,8.06,8.06,0,0,1,1,.06,3.85,3.85,0,0,1,1,.25l-.3,4.82A8.71,8.71,0,0,0,311.9,43c-2.93,0-5.06.94-6.38,2.84a13.38,13.38,0,0,0-2,7.77V67.51h-4.76Z"/></g></g></svg>